<svg width="35" height="36" viewBox="0 0 35 36" fill="none" xmlns="http://www.w3.org/2000/svg">
<path id="Vector" d="M1.74966 19.7502H3.4997V32C3.4997 33.9303 5.06949 35.5 6.99978 35.5H28.0002C29.9305 35.5 31.5003 33.9303 31.5003 32V19.7502H33.2503C33.5964 19.7501 33.9347 19.6474 34.2224 19.4551C34.5101 19.2628 34.7344 18.9895 34.8668 18.6698C34.9992 18.3501 35.0339 17.9983 34.9664 17.6589C34.8989 17.3195 34.7323 17.0077 34.4876 16.7629L18.7373 1.0131C18.5749 0.850443 18.382 0.721403 18.1697 0.633361C17.9574 0.545318 17.7298 0.5 17.5 0.5C17.2702 0.5 17.0426 0.545318 16.8303 0.633361C16.618 0.721403 16.4251 0.850443 16.2627 1.0131L0.512388 16.7629C0.267716 17.0077 0.101101 17.3195 0.0336068 17.6589C-0.0338879 17.9983 0.000768181 18.3501 0.133194 18.6698C0.265619 18.9895 0.489868 19.2628 0.777591 19.4551C1.06531 19.6474 1.40359 19.7501 1.74966 19.7502ZM13.9999 32V23.2501H21.0001V32H13.9999ZM17.5 4.72481L28.0002 15.2247V23.2501L28.002 32H24.5002V23.2501C24.5002 21.3199 22.9304 19.7502 21.0001 19.7502H13.9999C12.0696 19.7502 10.4999 21.3199 10.4999 23.2501V32H6.99978V15.2247L17.5 4.72481Z" fill="#696CFF"/>
</svg>
