<svg width="35" height="36" viewBox="0 0 35 36" fill="none" xmlns="http://www.w3.org/2000/svg">
<path id="Vector" d="M23.45 23.8333C22.925 23.8333 22.4 23.25 22.4 22.6667C22.4 22.0833 22.925 21.5 23.45 21.5C23.975 21.5 24.5 22.0833 24.5 22.6667C24.5 23.25 23.975 23.8333 23.45 23.8333ZM34.65 27.3333L28.35 20.3333C28 20.1389 27.65 19.9444 27.3 19.9444H22.4C21.7 19.9444 21 20.7222 21 21.5V26.9444C21 27.3333 21.175 27.7222 21.35 28.1111L27.65 35.1111C27.825 35.3056 28.175 35.5 28.7 35.5C29.225 35.5 29.4 35.3056 29.75 35.1111L34.65 29.6667C34.825 29.4722 35 29.0833 35 28.5C35 28.1111 34.825 27.7222 34.65 27.3333ZM14 0.5C10.15 0.5 7 4 7 8.27778C7 12.5556 10.15 16.0556 14 16.0556C17.85 16.0556 21 12.5556 21 8.27778C21 4 17.85 0.5 14 0.5ZM14 4.38889C15.925 4.38889 17.5 6.13889 17.5 8.27778C17.5 10.4167 15.925 12.1667 14 12.1667C12.075 12.1667 10.5 10.4167 10.5 8.27778C10.5 6.13889 12.075 4.38889 14 4.38889ZM14 18C9.275 18 0 20.5278 0 25.7778V31.6111H19.6L18.9 30.8333C18.2 30.0556 17.675 29.0833 17.5 27.9167H3.325V25.7778C3.325 24.6111 8.75 21.6944 14 21.6944C15.225 21.6944 16.45 21.8889 17.5 22.0833V21.5C17.5 20.3333 17.85 19.3611 18.375 18.5833C16.8 18.1944 15.225 18 14 18Z" fill="#828F9B"/>
</svg>
