<svg width="35" height="36" viewBox="0 0 35 36" fill="none" xmlns="http://www.w3.org/2000/svg">
<path id="Vector" d="M13.4144 0.5C11.6355 0.5 9.92952 1.31944 8.67167 2.77806C7.41383 4.23667 6.70719 6.21498 6.70719 8.27778C6.70719 10.3406 7.41383 12.3189 8.67167 13.7775C9.92952 15.2361 11.6355 16.0556 13.4144 16.0556C15.1932 16.0556 16.8992 15.2361 18.1571 13.7775C19.4149 12.3189 20.1216 10.3406 20.1216 8.27778C20.1216 6.21498 19.4149 4.23667 18.1571 2.77806C16.8992 1.31944 15.1932 0.5 13.4144 0.5ZM13.4144 4.38889C14.3038 4.38889 15.1568 4.79861 15.7857 5.52792C16.4146 6.25723 16.768 7.24638 16.768 8.27778C16.768 9.30918 16.4146 10.2983 15.7857 11.0276C15.1568 11.7569 14.3038 12.1667 13.4144 12.1667C12.5249 12.1667 11.6719 11.7569 11.043 11.0276C10.4141 10.2983 10.0608 9.30918 10.0608 8.27778C10.0608 7.24638 10.4141 6.25723 11.043 5.52792C11.6719 4.79861 12.5249 4.38889 13.4144 4.38889ZM25.1519 16.0556C24.8837 16.0556 24.7495 16.2111 24.7495 16.5222L24.3135 18.9722C23.9447 19.3222 23.4081 19.6333 23.0056 19.9444L20.8593 18.9722C20.7252 18.9722 20.4569 18.9722 20.3228 19.1667L18.713 22.5889C18.5789 22.7444 18.5789 23.0556 18.8472 23.2111L20.5911 24.8056V26.75L18.8472 28.3444C18.713 28.5 18.5789 28.8111 18.713 28.9667L20.3228 32.3889C20.4569 32.5833 20.7252 32.5833 20.8593 32.5833L23.0056 31.6111C23.4081 31.9222 23.9447 32.2333 24.3135 32.5833L24.7495 35.0333C24.7495 35.3444 24.8837 35.5 25.1519 35.5H28.5055C28.6397 35.5 28.908 35.3444 28.908 35.0333L29.1763 32.5833C29.7128 32.2333 30.2494 31.9222 30.6518 31.6111L32.6975 32.5833C32.9323 32.5833 33.2006 32.5833 33.2006 32.3889L34.9444 28.9667C35.0786 28.8111 34.9444 28.5 34.8103 28.3444L33.0664 26.75V24.8056L34.8103 23.2111C34.9444 23.0556 35.0786 22.7444 34.9444 22.5889L33.2006 19.1667C33.2006 18.9722 32.9323 18.9722 32.6975 18.9722L30.6518 19.9444C30.2494 19.6333 29.7128 19.3222 29.1763 18.9722L28.908 16.5222C28.908 16.2111 28.6397 16.0556 28.5055 16.0556H25.1519ZM13.4144 18C8.93732 18 0 20.5861 0 25.7778V31.6111H16.2146C15.7451 30.4639 15.4098 29.2194 15.2421 27.9167H3.18591V25.7778C3.18591 24.5333 8.43429 21.6944 13.4144 21.6944C14.1354 21.6944 14.8732 21.7722 15.5942 21.8889C15.9296 20.6444 16.3823 19.4778 16.9692 18.4083C15.6613 18.1556 14.4204 18 13.4144 18ZM26.8958 22.8611C28.2373 22.8611 29.3439 24.1444 29.3439 25.8556C29.3439 27.4111 28.2373 28.6944 26.8958 28.6944C25.4202 28.6944 24.3135 27.4111 24.3135 25.8556C24.3135 24.1444 25.4202 22.8611 26.8958 22.8611Z" fill="#696CFF"/>
</svg>
