<svg width="35" height="36" viewBox="0 0 35 36" fill="none" xmlns="http://www.w3.org/2000/svg">
<path id="Vector" d="M22.9688 0.5L35 6.56598V20.0938L32.8125 18.9909V9.03028L24.0625 13.4419V17.888L21.875 18.9909V13.4419L13.125 9.03028V12.9421L10.9375 11.8392V6.56598L22.9688 0.5ZM22.9688 11.529L25.9937 9.99532L18.0811 5.42861L14.4751 7.25529L22.9688 11.529ZM28.3521 8.82349L31.4624 7.25529L22.9688 2.9643L20.4224 4.25677L28.3521 8.82349ZM19.6875 20.0938L17.5 21.1967V21.1795L10.9375 24.4882V32.3291L17.5 29.0032V31.4847L9.84375 35.3449L0 30.3646V18.7152L9.84375 13.7521L19.6875 18.7152V20.0938ZM8.75 32.3291V24.4882L2.1875 21.1795V29.0032L8.75 32.3291ZM9.84375 22.5753L16.1499 19.4045L9.84375 16.2164L3.5376 19.4045L9.84375 22.5753ZM19.6875 22.5581L27.3438 18.6979L35 22.5581V31.6398L27.3438 35.5L19.6875 31.6398V22.5581ZM26.25 32.4842V27.2282L21.875 25.0224V30.2784L26.25 32.4842ZM32.8125 30.2784V25.0224L28.4375 27.2282V32.4842L32.8125 30.2784ZM27.3438 25.3154L31.4624 23.2302L27.3438 21.1622L23.2251 23.2302L27.3438 25.3154Z" fill="#696CFF"/>
</svg>
