<svg width="19" height="20" viewBox="0 0 19 20" fill="none" xmlns="http://www.w3.org/2000/svg">
<path id="Vector" d="M18.5002 19.0002L14.1572 14.6572M14.1572 14.6572C14.9001 13.9143 15.4894 13.0324 15.8914 12.0618C16.2935 11.0911 16.5004 10.0508 16.5004 9.00021C16.5004 7.9496 16.2935 6.90929 15.8914 5.93866C15.4894 4.96803 14.9001 4.08609 14.1572 3.34321C13.4143 2.60032 12.5324 2.01103 11.5618 1.60898C10.5911 1.20693 9.55081 1 8.50021 1C7.4496 1 6.40929 1.20693 5.43866 1.60898C4.46803 2.01103 3.58609 2.60032 2.84321 3.34321C1.34288 4.84354 0.5 6.87842 0.5 9.00021C0.5 11.122 1.34288 13.1569 2.84321 14.6572C4.34354 16.1575 6.37842 17.0004 8.50021 17.0004C10.622 17.0004 12.6569 16.1575 14.1572 14.6572Z" stroke="black" stroke-linecap="round" stroke-linejoin="round"/>
</svg>
